<?xml version="1.0" encoding="UTF-8" standalone="no"?>
<svg
   xmlns:dc="http://purl.org/dc/elements/1.1/"
   xmlns:cc="http://creativecommons.org/ns#"
   xmlns:rdf="http://www.w3.org/1999/02/22-rdf-syntax-ns#"
   xmlns:svg="http://www.w3.org/2000/svg"
   xmlns="http://www.w3.org/2000/svg"
   id="svg8"
   version="1.1"
   viewBox="0 0 31.137497 33.359966"
   height="33.359966mm"
   width="31.137497mm">
  <defs
     id="defs2" />
  <metadata
     id="metadata5">
    <rdf:RDF>
      <cc:Work
         rdf:about="">
        <dc:format>image/svg+xml</dc:format>
        <dc:type
           rdf:resource="http://purl.org/dc/dcmitype/StillImage" />
        <dc:title></dc:title>
      </cc:Work>
    </rdf:RDF>
  </metadata>
  <g
     id="layer1"
     transform="translate(-74.496503,-64.520571)">
    <path
       style="fill:#000000;stroke-width:0.264583"
       d="m 76.518053,97.062154 c -0.44513,-0.47294 -1.11695,-1.32463 -1.49293,-1.89263 -0.61818,-0.93392 -0.64924,-1.09849 -0.32452,-1.7198 0.19749,-0.37787 0.73223,-1.04185 1.18829,-1.4755 0.81399,-0.77398 0.8958,-0.79161 4.4554,-0.96058 3.73424,-0.17726 5.47364,-0.52951 4.41992,-0.8951 -2.57193,-0.89233 -2.65238,-1.03697 -1.93826,-3.485 l 0.54247,-1.8596 -1.06323,-1.56188 c -1.98554,-2.91677 -2.34539,-5.36362 -1.13712,-7.73203 0.64559,-1.26545 3.48749,-3.94391 5.07561,-4.78371 l 1.20103,-0.63512 -0.49704,-0.95239 c -0.61739,-1.183 -0.47475,-2.74152 0.32926,-3.59734 1.07482,-1.1441 3.43749,-1.32959 4.94486,-0.38822 1.19025,0.74333 1.50038,2.70581 0.64838,4.10294 l -0.49102,0.8052 1.61229,0.89314 c 1.97909,1.09634 4.24326,3.31425 4.9316,4.83084 1.04583,2.30423 0.37312,5.54675 -1.65741,7.9888 l -0.64114,0.77107 0.54481,2.05353 c 0.52799,1.99011 0.52989,2.07002 0.0617,2.58737 -0.26572,0.29361 -0.85772,0.61411 -1.31558,0.71224 -0.45785,0.0981 -0.94758,0.24692 -1.08829,0.33067 -0.5579,0.33204 2.52687,0.83391 5.15535,0.83873 2.492917,0.005 2.879727,0.0709 3.712697,0.63695 0.51142,0.34752 1.15687,1.0534 1.43434,1.56862 l 0.50448,0.93677 -0.97366,1.46643 c -0.5355,0.80653 -1.26402,1.65669 -1.61893,1.88923 -0.59282,0.38843 -0.69967,0.38716 -1.31442,-0.0156 -0.40406,-0.26474 -1.905097,-0.58879 -3.788877,-0.81793 -3.72847,-0.45353 -5.67575,-0.9682 -7.04879,-1.86301 l -1.01865,-0.66384 -0.57247,0.5378 c -0.9916,0.93157 -2.4972,1.37514 -6.46912,1.9059 -2.12225,0.28359 -4.12559,0.69225 -4.45653,0.90909 -0.82517,0.54067 -0.93238,0.51372 -1.8545,-0.46599 z m 17.44043,-10.41632 c 0.40019,-0.0786 0.72761,-0.25546 0.72761,-0.39302 0,-0.52778 -1.48185,-0.76618 -4.7625,-0.76618 -3.69353,0 -5.03963,0.27333 -4.50697,0.91514 0.17217,0.20745 0.69113,0.43121 1.15323,0.49723 0.97731,0.13963 6.32101,-0.0435 7.38863,-0.25317 z m 0.13229,-2.91346 c 0.68729,-0.18419 0.78962,-0.76039 0.1768,-0.99555 -0.23018,-0.0883 -2.23966,-0.1606 -4.46552,-0.1606 -3.26248,0 -4.11043,0.0764 -4.37418,0.39423 -0.2706,0.32604 -0.219,0.43755 0.29833,0.64468 0.69031,0.27641 7.41875,0.37071 8.36457,0.11724 z m -3.37343,-4.86032 c 0,-1.03672 0.0193,-1.05833 0.9428,-1.05833 0.9043,0 0.93942,-0.0351 0.8599,-0.8599 -0.0729,-0.75611 -0.1867,-0.8699 -0.94281,-0.94281 -0.78724,-0.0759 -0.85989,-0.15973 -0.85989,-0.99218 0,-0.83392 -0.0658,-0.90928 -0.79375,-0.90928 -0.73076,0 -0.79375,0.0735 -0.79375,0.92604 0,0.85255 -0.063,0.92604 -0.79375,0.92604 -0.73076,0 -0.79375,0.0735 -0.79375,0.92604 0,0.85255 0.063,0.92605 0.79375,0.92605 0.74965,0 0.79375,0.0588 0.79375,1.05833 0,0.99954 0.0441,1.05833 0.79375,1.05833 0.74965,0 0.79375,-0.0588 0.79375,-1.05833 z m -0.15393,-10.21477 c 0.61721,-0.23685 0.53964,-1.60804 -0.11066,-1.95607 -1.17961,-0.63131 -2.27887,1.15852 -1.12448,1.83089 0.55207,0.32155 0.6876,0.33529 1.23514,0.12518 z"
       id="path76-90" />
  </g>
</svg>
