<?xml version="1.0" encoding="UTF-8" standalone="no"?>
<svg
   xmlns:dc="http://purl.org/dc/elements/1.1/"
   xmlns:cc="http://creativecommons.org/ns#"
   xmlns:rdf="http://www.w3.org/1999/02/22-rdf-syntax-ns#"
   xmlns:svg="http://www.w3.org/2000/svg"
   xmlns="http://www.w3.org/2000/svg"
   id="svg8"
   version="1.1"
   viewBox="0 0 29.254883 31.625023"
   height="31.625023mm"
   width="29.254883mm">
  <defs
     id="defs2" />
  <metadata
     id="metadata5">
    <rdf:RDF>
      <cc:Work
         rdf:about="">
        <dc:format>image/svg+xml</dc:format>
        <dc:type
           rdf:resource="http://purl.org/dc/dcmitype/StillImage" />
        <dc:title></dc:title>
      </cc:Work>
    </rdf:RDF>
  </metadata>
  <g
     id="layer1"
     transform="translate(-19.945827,-20)">
    <path
       style="fill:#000000;stroke-width:0.264583"
       d="m 30.241365,51.567007 c -2.20964,-0.39096 -4.0612,-1.04242 -4.72493,-1.66244 -0.64831,-0.60561 -0.77064,-0.96463 -0.93077,-2.73177 -0.26667,-2.94277 -0.74855,-4.28905 -2.52919,-7.0661 -1.89946,-2.96233 -2.23117,-3.87684 -2.07766,-5.72794 0.34166,-4.12007 5.25839,-6.36457 9.18419,-4.19262 1.29549,0.71674 1.59614,0.57258 1.60348,-0.76886 0.006,-1.02379 0.6396,-2.15328 1.58756,-2.82829 1.10589,-0.78746 1.05947,-1.65001 -0.1283,-2.38409 -0.76612,-0.47349 -0.92604,-0.72852 -0.92604,-1.47679 0,-0.84985 0.0536,-0.90446 0.88776,-0.90446 0.77493,0 0.91892,-0.1093 1.13283,-0.8599 0.20342,-0.71381 0.39079,-0.87406 1.10291,-0.94327 0.7643,-0.0743 0.90083,0.0195 1.25197,0.8599 0.32707,0.78277 0.52858,0.94327 1.18433,0.94327 0.7263,0 0.7902,0.0747 0.7902,0.92361 0,0.76428 -0.15919,1.02672 -0.92277,1.52135 -1.18903,0.77023 -1.18222,1.45428 0.0241,2.41677 1.09185,0.87119 1.69246,2.10691 1.69246,3.48216 v 0.95256 l 0.7276,-0.51588 c 0.81667,-0.57902 2.99389,-1.37224 3.76654,-1.37224 0.27879,0 1.12785,0.13317 1.88679,0.29594 2.69494,0.57796 4.78742,3.62436 4.30742,6.27111 -0.22207,1.22451 -0.88163,2.54131 -2.33942,4.67063 -1.40197,2.0478 -1.96501,3.6804 -2.25239,6.53116 -0.19893,1.97329 -0.29975,2.258 -1.03092,2.9113 -1.37053,1.22457 -3.10534,1.58471 -8.10833,1.6833 -2.47385,0.0487 -4.79557,0.036 -5.15937,-0.0284 z m 11.3104,-4.27559 c 0.25225,-0.75677 -1.34733,-0.98324 -6.94477,-0.98324 -5.59853,0 -7.01146,0.19918 -7.01146,0.98843 0,0.49724 13.79047,0.49212 13.95623,-0.005 z m -7.07706,-5.44406 c 0.94588,10e-4 3.12518,0.098 4.84289,0.21553 l 3.1231,0.21371 1.52077,-1.56382 c 1.71396,-1.76248 3.21324,-4.49703 3.21324,-5.86068 0,-2.15435 -1.76982,-3.76803 -4.13263,-3.76803 -2.22478,0 -5.35224,2.34833 -6.45686,4.84831 -0.26849,0.60764 -0.57138,1.75965 -0.67309,2.56002 -0.22151,1.74313 -0.47517,2.11666 -1.43742,2.11666 -0.96825,0 -1.22352,-0.37914 -1.4352,-2.13159 -0.59935,-4.96189 -5.57777,-8.74096 -9.12933,-6.92997 -2.07791,1.05955 -2.63568,3.13902 -1.47713,5.50702 0.8426,1.7222 3.09932,4.53447 3.9299,4.89734 0.32911,0.14379 1.80444,0.17413 3.48155,0.0716 1.60073,-0.0979 3.68432,-0.1771 4.63021,-0.17611 z m -7.54063,-1.07767 c -0.99589,-0.4364 -2.83204,-2.41459 -3.55308,-3.82795 -0.79122,-1.55091 -0.72167,-2.81425 0.20598,-3.7419 2.88734,-2.88735 8.24899,0.84405 8.34601,5.80835 0.0251,1.28476 -0.0439,1.47888 -0.63328,1.78203 -0.85278,0.43861 -3.3446,0.42689 -4.36563,-0.0205 z m 10.74563,-0.0411 -0.89604,-0.38894 0.17606,-1.49801 c 0.32875,-2.79716 1.8221,-5.11707 3.96014,-6.15208 3.47532,-1.68238 6.4827,0.96065 4.79864,4.21727 -0.66128,1.27878 -2.77759,3.45789 -3.76083,3.87245 -1.10497,0.46588 -3.14355,0.44173 -4.27797,-0.0507 z"
       id="path76-3" />
  </g>
</svg>
