<?xml version="1.0" encoding="UTF-8" standalone="no"?>
<svg
   xmlns:dc="http://purl.org/dc/elements/1.1/"
   xmlns:cc="http://creativecommons.org/ns#"
   xmlns:rdf="http://www.w3.org/1999/02/22-rdf-syntax-ns#"
   xmlns:svg="http://www.w3.org/2000/svg"
   xmlns="http://www.w3.org/2000/svg"
   id="svg8"
   version="1.1"
   viewBox="0 0 28.999666 28.358999"
   height="28.358999mm"
   width="28.999666mm">
  <defs
     id="defs2" />
  <metadata
     id="metadata5">
    <rdf:RDF>
      <cc:Work
         rdf:about="">
        <dc:format>image/svg+xml</dc:format>
        <dc:type
           rdf:resource="http://purl.org/dc/dcmitype/StillImage" />
        <dc:title></dc:title>
      </cc:Work>
    </rdf:RDF>
  </metadata>
  <g
     id="layer1"
     transform="translate(-123.86421,-65.532402)">
    <path
       id="path76"
       d="m 132.3357,92.766922 c 0.25115,-1.58199 1.26504,-3.68178 2.76446,-5.72525 0.70594,-0.96207 1.48299,-2.06204 1.72679,-2.44437 0.54868,-0.86046 0.99287,-2.34756 0.70121,-2.34756 -0.11878,0 -0.93508,0.4802 -1.814,1.06712 -1.1886,0.79372 -1.95894,1.60409 -3.00671,3.16295 -0.77478,1.15269 -1.56614,2.16034 -1.75858,2.23921 -0.47226,0.19355 -1.36989,-0.31324 -1.36989,-0.77342 0,-0.27246 -0.23362,-0.33302 -0.88003,-0.22812 -1.36767,0.22194 -3.51482,-0.81707 -4.31811,-2.08955 -0.64819,-1.02681 -0.64968,-1.04398 -0.20879,-2.40463 0.24424,-0.75374 1.38513,-3.42785 2.53531,-5.94246 3.08415,-6.74276 3.23474,-7.20655 3.05114,-9.39662 l -0.15473,-1.84554 1.40648,0.14517 c 0.77357,0.0798 2.00573,0.44882 2.73815,0.81996 l 1.33166,0.67481 0.60509,-0.88307 c 1.04787,-1.52927 1.41972,-1.61059 2.57838,-0.56381 0.60195,0.54382 1.14577,1.35234 1.33545,1.98542 0.30933,1.03242 0.35788,1.068 1.45773,1.068 1.73749,0 4.06109,1.29298 5.94746,3.30951 2.99969,3.20667 4.70964,6.95117 5.46611,11.96976 0.38946,2.58376 0.53332,8.12172 0.23143,8.90846 -0.14259,0.37161 -1.30289,0.41851 -10.35257,0.41851 h -10.19196 z m 18.01989,-2.08163 c 0.23191,-1.05586 -0.0724,-4.9462 -0.577,-7.37722 -1.17703,-5.67023 -5.54143,-11.12337 -9.3744,-11.71295 -1.62102,-0.24934 -2.14402,0.59588 -0.60738,0.98156 2.25036,0.5648 5.48077,3.6782 6.87957,6.63035 1.24251,2.62233 1.68267,4.53922 1.92738,8.39374 0.21236,3.34467 0.49736,4.28077 1.21902,4.00384 0.19875,-0.0763 0.43852,-0.48996 0.53281,-0.91932 z m -23.78609,-6.46476 c 0.56776,-0.86652 0.17606,-1.33382 -0.63932,-0.76271 -0.65894,0.46153 -0.7905,1.43775 -0.19376,1.43775 0.21493,0 0.58981,-0.30377 0.83308,-0.67504 z m 5.07314,-7.89878 c 0.93456,-0.48625 1.83654,-1.47781 1.94831,-2.1418 0.0733,-0.43559 -0.0772,-0.54314 -0.85108,-0.60818 -1.49747,-0.12586 -3.17786,1.55099 -2.72829,2.72255 0.19128,0.49845 0.70904,0.50716 1.63106,0.0274 z"
       style="fill:#000000;stroke-width:0.264583" />
  </g>
</svg>
