<?xml version="1.0" encoding="UTF-8" standalone="no"?>
<svg
   xmlns:dc="http://purl.org/dc/elements/1.1/"
   xmlns:cc="http://creativecommons.org/ns#"
   xmlns:rdf="http://www.w3.org/1999/02/22-rdf-syntax-ns#"
   xmlns:svg="http://www.w3.org/2000/svg"
   xmlns="http://www.w3.org/2000/svg"
   id="svg8"
   version="1.1"
   viewBox="0 0 20.70409 28.256269"
   height="28.256269mm"
   width="20.70409mm">
  <defs
     id="defs2" />
  <metadata
     id="metadata5">
    <rdf:RDF>
      <cc:Work
         rdf:about="">
        <dc:format>image/svg+xml</dc:format>
        <dc:type
           rdf:resource="http://purl.org/dc/dcmitype/StillImage" />
        <dc:title></dc:title>
      </cc:Work>
    </rdf:RDF>
  </metadata>
  <g
     id="layer1"
     transform="translate(-175.34242,-62.496909)">
    <path
       style="fill:#000000;stroke-width:0.264583"
       d="m 175.34242,88.245198 c 0,-4.38961 1.48058,-7.46475 4.50217,-9.35093 0.85762,-0.53536 1.5647,-1.04256 1.57128,-1.12711 0.007,-0.0846 -0.27051,-0.3049 -0.61576,-0.48967 -1.04354,-0.55849 -1.75366,-2.13488 -1.75255,-3.89054 0,-1.86396 0.57065,-2.94167 2.08328,-3.94268 l 1.04658,-0.69259 -0.37481,-0.897 c -1.22002,-2.91994 0.83167,-5.55836 4.15698,-5.34574 1.88166,0.12032 2.78014,0.70689 3.46935,2.26497 0.53888,1.21822 0.50194,1.98461 -0.181,3.7545 -0.10298,0.26689 0.11313,0.51499 0.65899,0.75662 1.76274,0.78026 2.83266,3.78285 2.11879,5.94596 -0.17129,0.51901 -0.7334,1.31414 -1.24913,1.76695 -0.5157,0.45281 -0.8954,0.85066 -0.84373,0.88412 0.0516,0.0335 0.57018,0.36869 1.15226,0.74494 1.73427,1.12101 3.06547,2.62841 3.92396,4.4434 0.71726,1.51642 0.82174,2.04787 0.92311,4.69636 l 0.11432,2.98642 h -10.35206 -10.35203 z"
       id="path76-23" />
  </g>
</svg>
