<?xml version="1.0" encoding="UTF-8" standalone="no"?>
<svg
   xmlns:dc="http://purl.org/dc/elements/1.1/"
   xmlns:cc="http://creativecommons.org/ns#"
   xmlns:rdf="http://www.w3.org/1999/02/22-rdf-syntax-ns#"
   xmlns:svg="http://www.w3.org/2000/svg"
   xmlns="http://www.w3.org/2000/svg"
   id="svg8"
   version="1.1"
   viewBox="0 0 33.541927 31.038889"
   height="31.038889mm"
   width="33.541927mm">
  <defs
     id="defs2" />
  <metadata
     id="metadata5">
    <rdf:RDF>
      <cc:Work
         rdf:about="">
        <dc:format>image/svg+xml</dc:format>
        <dc:type
           rdf:resource="http://purl.org/dc/dcmitype/StillImage" />
        <dc:title></dc:title>
      </cc:Work>
    </rdf:RDF>
  </metadata>
  <g
     id="layer1"
     transform="translate(-64.716513,-21.011831)">
    <path
       style="fill:#000000;stroke-width:0.264583"
       d="m 75.556403,51.884239 c -0.80479,-0.12794 -2.11447,-0.44853 -2.91042,-0.71242 -1.36507,-0.45257 -1.4517,-0.53372 -1.5268,-1.43014 -0.0456,-0.54475 0.19561,-1.68156 0.56527,-2.66366 0.75313,-2.00089 0.65621,-2.41974 -1.06161,-4.58808 -0.57642,-0.7276 -1.25639,-1.64194 -1.51103,-2.03187 -0.55015,-0.84245 -1.69127,-5.26064 -1.92986,-7.47206 -0.15169,-1.40603 -0.28658,-1.6791 -1.31722,-2.66663 -0.95713,-0.91709 -1.14822,-1.26626 -1.14822,-2.09804 0,-0.78204 0.19456,-1.19242 0.89958,-1.89744 1.26538,-1.26538 2.50366,-1.25342 3.79371,0.0366 0.91744,0.91744 0.93288,0.96813 0.76983,2.5281 -0.11828,1.13167 -0.0528,1.86367 0.22639,2.53194 0.47208,1.12985 2.19548,3.52875 2.53511,3.52875 0.31953,0 0.31263,-5.18135 -0.008,-6.30072 -0.13775,-0.4803 -0.614,-1.28733 -1.05834,-1.7934 -1.03423,-1.17793 -1.07921,-2.39074 -0.13047,-3.51825 1.23922,-1.47274 3.35691,-1.33358 4.34139,0.28527 0.44041,0.72419 0.49633,1.15037 0.36102,2.75111 -0.17562,2.07756 0.29685,4.105 1.66316,7.13679 l 0.70821,1.57149 0.38047,-1.85208 c 0.569954,-2.77438 0.563077,-6.30001 -0.016,-8.20209 -0.3736,-1.22718 -0.42013,-1.75262 -0.20503,-2.31498 0.395347,-1.03361 1.792484,-1.84408 2.894734,-1.67922 1.09102,0.16317 1.61141,0.57854 2.05533,1.64051 0.29575,0.70753 0.27203,1.05575 -0.17126,2.51354 -0.63638,2.09282 -0.64484,4.39323 -0.0276,7.51307 l 0.47109,2.38125 0.47152,-1.05833 c 1.45413,-3.26382 1.81512,-4.73107 1.84458,-7.49728 0.0282,-2.65044 0.052,-2.75442 0.76929,-3.37155 1.46756,-1.26256 3.06318,-1.10209 4.08848,0.41116 0.81596,1.20428 0.75927,2.18273 -0.18905,3.26281 -0.4314,0.49134 -0.90765,1.2176 -1.05834,1.61393 -0.31917,0.8395 -0.3747,6.50697 -0.0637,6.50697 0.3694,0 2.22541,-2.62285 2.57898,-3.64451 0.19812,-0.5725 0.28003,-1.50879 0.19538,-2.23354 -0.26065,-2.23161 0.84288,-3.64695 2.84348,-3.64695 0.96567,0 2.24897,1.12938 2.52274,2.22019 0.23939,0.9538 -0.31577,2.17641 -1.34458,2.96113 -0.729,0.55603 -0.87997,0.87266 -1.03305,2.1667 -0.0986,0.83354 -0.50313,2.83358 -0.89895,4.44455 -0.64726,2.63432 -0.85524,3.1002 -2.06706,4.63021 -0.74107,0.93565 -1.54413,2.08586 -1.78458,2.55603 -0.41963,0.82051 -0.41045,0.92066 0.22845,2.49301 0.36611,0.90099 0.66565,2.08969 0.66565,2.64157 0,1.16147 -0.3609,1.43635 -2.64584,2.01521 -1.74321,0.44162 -11.582914,0.67843 -13.766354,0.33132 z m 3.18302,-4.35341 c 1.819014,-0.0844 4.745894,-0.0624 6.504184,0.0487 3.70718,0.23432 4.07915,0.19454 4.07915,-0.43632 0,-0.72567 -1.14929,-1.08534 -4.42463,-1.3847 -3.24271,-0.29638 -8.728184,0.0111 -10.325884,0.57871 -1.37372,0.48808 -0.97373,1.72177 0.46302,1.42809 0.21828,-0.0446 1.88516,-0.15013 3.70416,-0.23449 z m 11.317604,-6.25049 c 0.12183,-0.63245 -1.0142,-1.01413 -3.99503,-1.34223 -2.83312,-0.31184 -9.561574,-0.14218 -11.394694,0.28733 -1.08221,0.25356 -1.90699,0.8683 -1.67298,1.24692 0.0761,0.12311 3.9283,0.22383 8.560464,0.22383 7.44678,0 8.43141,-0.0482 8.50224,-0.41585 z M 68.269483,28.977269 c 0.84204,-0.84203 0.15346,-2.15622 -0.98063,-1.87158 -0.97264,0.24411 -1.21497,1.19656 -0.45997,1.80791 0.72394,0.58622 0.90984,0.59443 1.4406,0.0637 z m 27.887484,0.18458 c 0.47843,-0.3033 0.2878,-1.63058 -0.28577,-1.98972 -1.03668,-0.6491 -2.09102,1.15001 -1.09905,1.87536 0.5457,0.39903 0.89081,0.42753 1.38482,0.11436 z m -21.386294,-3.47297 c 0.42833,-0.80033 -0.0986,-1.5875 -1.0626,-1.5875 -0.61177,0 -0.81529,0.143 -0.94628,0.6649 -0.0957,0.38134 -0.0276,0.83267 0.15965,1.05833 0.46865,0.56468 1.51551,0.48784 1.84923,-0.13573 z m 15.450084,-0.0661 c 0.39664,-0.63347 -0.087,-1.36471 -0.97304,-1.47107 -0.87992,-0.10562 -1.4103,0.73936 -0.97481,1.55307 0.354,0.66146 1.51288,0.61268 1.94785,-0.082 z m -7.64764,-1.51265 c 0.19266,-0.60701 -0.0668,-1.25096 -0.58414,-1.44946 -1.20348,-0.46182 -2.14727,0.93715 -1.16746,1.73054 0.65294,0.52872 1.53974,0.38642 1.7516,-0.28108 z"
       id="path76-9" />
  </g>
</svg>
