<?xml version="1.0" encoding="UTF-8" standalone="no"?>
<svg
   xmlns:dc="http://purl.org/dc/elements/1.1/"
   xmlns:cc="http://creativecommons.org/ns#"
   xmlns:rdf="http://www.w3.org/1999/02/22-rdf-syntax-ns#"
   xmlns:svg="http://www.w3.org/2000/svg"
   xmlns="http://www.w3.org/2000/svg"
   id="svg8"
   version="1.1"
   viewBox="0 0 24.34124 28.10462"
   height="28.10462mm"
   width="24.34124mm">
  <defs
     id="defs2" />
  <metadata
     id="metadata5">
    <rdf:RDF>
      <cc:Work
         rdf:about="">
        <dc:format>image/svg+xml</dc:format>
        <dc:type
           rdf:resource="http://purl.org/dc/dcmitype/StillImage" />
        <dc:title></dc:title>
      </cc:Work>
    </rdf:RDF>
  </metadata>
  <g
     id="layer1"
     transform="translate(-24.473006,-65.532402)">
    <path
       style="fill:#000000;stroke-width:0.264583"
       d="m 24.910886,93.153172 c -0.31206,-0.34483 -0.43788,-0.97359 -0.43788,-2.18833 v -1.70447 l 2.38125,-2.37022 2.38125,-2.37022 v -4.94887 -4.94887 l -1.84952,-1.67122 -1.84951,-1.67123 -0.003,-2.26899 c -0.002,-2.05899 0.0566,-2.32457 0.63682,-2.86965 0.5252,-0.4934 0.94254,-0.60203 2.337,-0.60827 2.02361,-0.009 2.84445,0.35404 2.84445,1.2583 0,0.54822 0.12649,0.65215 0.79375,0.65215 0.59513,0 0.79375,-0.12215 0.79375,-0.48816 0,-1.08823 0.84837,-1.41062 3.70054,-1.40623 2.88248,0.004 3.44321,0.21049 3.44321,1.26532 0,0.54254 0.12737,0.62907 0.92604,0.62907 0.79867,0 0.92604,-0.0865 0.92604,-0.62907 0,-0.96961 0.61566,-1.28181 2.52773,-1.28181 1.44954,0 1.84902,0.10129 2.38486,0.60468 0.58508,0.54966 0.64366,0.81183 0.64366,2.88077 v 2.27608 l -1.85208,1.83789 -1.85208,1.83789 v 4.64253 4.64253 l 2.51354,2.50309 2.51354,2.50309 v 1.64856 c 0,1.35519 -0.10305,1.74457 -0.57906,2.18804 -0.56368,0.52522 -0.87366,0.53947 -11.73287,0.53947 -10.46969,0 -11.18076,-0.0297 -11.59178,-0.48385 z m 17.02462,-9.04663 v -0.79922 l -5.35781,0.0716 -5.35781,0.0716 -0.0837,0.7276 -0.0837,0.7276 h 5.44153 5.44153 z m 0,-8.59347 v -0.66146 h -5.42396 -5.42395 v 0.66146 0.66145 h 5.42395 5.42396 z"
       id="path76-7" />
  </g>
</svg>
